<svg id="Capa_1" data-name="Capa 1" xmlns="http://www.w3.org/2000/svg" viewBox="0 0 310.44 157.85">
  <defs>
    <style>
      .cls-1{fill:#b7b325;}.cls-2{fill:#0f0f0d;}.cls-3{fill:#dbd853;}.cls-4{fill:#dee614;}.cls-5{fill:#eded5d;}.cls-6{fill:#c9c91b;}.cls-7{fill:#fff;}
    </style>
  </defs>
  <title>chip</title>
  <polygon class="cls-1" points="266.67 102.97 265.52 104.12 265.91 104.52 267.31 104.52 268.85 102.97 266.67 102.97"/>
  <rect class="cls-1" x="231.33" y="42.72" width="28.65" height="2"/>
  <circle class="cls-1" cx="259.98" cy="43.72" r="1.5"/>
  <rect class="cls-1" x="231.33" y="68.35" width="62.98" height="2"/>
  <polygon class="cls-1" points="247.42 52.81 246.27 51.66 246.67 51.26 248.06 51.26 249.61 52.81 247.42 52.81"/>
  <rect class="cls-1" x="231.33" y="51.26" width="16.32" height="2"/>
  <rect class="cls-1" x="337.93" y="221.47" width="2" height="24.16" transform="translate(-148.61 135.32) rotate(-45)"/>
  <circle class="cls-1" cx="294.31" cy="69.35" r="1.5"/>
  <polygon class="cls-2" points="270.37 101.46 269.27 100.36 266.67 102.97 268.85 102.97 270.37 101.46"/>
  <polygon class="cls-1" points="284.21 86.98 285.36 85.83 284.96 85.43 283.57 85.43 282.02 86.98 284.21 86.98"/>
  <rect class="cls-1" x="284.08" y="85.43" width="16.36" height="2"/>
  <polygon class="cls-1" points="266.9 102.97 266.9 102.52 231.33 102.52 231.33 104.52 265.47 104.52 265.47 102.97 266.9 102.97"/>
  <rect class="cls-1" x="265.47" y="102.97" width="1.43" height="1.55"/>
  <polygon class="cls-1" points="284.69 87.14 283.27 85.72 266.19 102.81 266.35 102.97 268.86 102.97 284.69 87.14"/>
  <polygon class="cls-1" points="268.86 102.97 266.35 102.97 267.6 104.22 268.86 102.97"/>
  <circle class="cls-1" cx="300.44" cy="86.43" r="1.5"/>
  <rect class="cls-1" x="231.33" y="85.43" width="33.23" height="2"/>
  <circle class="cls-1" cx="264.56" cy="86.43" r="1.5"/>
  <rect class="cls-1" x="231.33" y="93.97" width="28.65" height="2"/>
  <circle class="cls-1" cx="259.98" cy="94.97" r="1.5"/>
  <rect class="cls-1" x="231.33" y="111.06" width="16.15" height="2"/>
  <circle class="cls-1" cx="247.48" cy="112.06" r="1.5"/>
  <rect class="cls-1" x="231.33" y="76.89" width="77.61" height="2"/>
  <circle class="cls-1" cx="308.94" cy="77.89" r="1.5"/>
  <polygon class="cls-1" points="43.77 102.97 44.92 104.12 44.53 104.52 43.13 104.52 41.59 102.97 43.77 102.97"/>
  <rect class="cls-1" x="50.46" y="42.72" width="28.65" height="2"/>
  <circle class="cls-1" cx="50.46" cy="43.72" r="1.5"/>
  <rect class="cls-1" x="16.13" y="68.35" width="62.98" height="2"/>
  <polygon class="cls-1" points="63.02 52.81 64.17 51.66 63.77 51.26 62.38 51.26 60.83 52.81 63.02 52.81"/>
  <rect class="cls-1" x="62.79" y="51.26" width="16.32" height="2"/>
  <rect class="cls-1" x="124.91" y="232.55" width="24.16" height="2" transform="translate(-207.76 -7.47) rotate(-45)"/>
  <circle class="cls-1" cx="16.13" cy="69.35" r="1.5"/>
  <polygon class="cls-2" points="40.08 101.46 41.17 100.36 43.77 102.97 41.59 102.97 40.08 101.46"/>
  <polygon class="cls-1" points="26.23 86.98 25.09 85.83 25.48 85.43 26.88 85.43 28.42 86.98 26.23 86.98"/>
  <rect class="cls-1" x="10" y="85.43" width="16.36" height="2"/>
  <polygon class="cls-1" points="43.55 102.97 43.55 102.52 79.11 102.52 79.11 104.52 44.97 104.52 44.97 102.97 43.55 102.97"/>
  <rect class="cls-1" x="43.54" y="102.97" width="1.43" height="1.55"/>
  <polygon class="cls-1" points="25.75 87.14 27.17 85.72 44.25 102.81 44.09 102.97 41.59 102.97 25.75 87.14"/>
  <polygon class="cls-1" points="41.59 102.97 44.09 102.97 42.84 104.22 41.59 102.97"/>
  <circle class="cls-1" cx="10" cy="86.43" r="1.5"/>
  <rect class="cls-1" x="45.88" y="85.43" width="33.23" height="2"/>
  <circle class="cls-1" cx="45.88" cy="86.43" r="1.5"/>
  <rect class="cls-1" x="50.46" y="93.97" width="28.65" height="2"/>
  <circle class="cls-1" cx="50.46" cy="94.97" r="1.5"/>
  <rect class="cls-1" x="62.96" y="111.06" width="16.15" height="2"/>
  <circle class="cls-1" cx="62.96" cy="112.06" r="1.5"/>
  <rect class="cls-1" x="1.5" y="76.89" width="77.61" height="2"/>
  <circle class="cls-1" cx="1.5" cy="77.89" r="1.5"/>
  <path class="cls-3" d="M220.2,41.13h11.36a2.59,2.59,0,0,1,2.59,2.59v0a2.59,2.59,0,0,1-2.59,2.59H220.2a0,0,0,0,1,0,0V41.13A0,0,0,0,1,220.2,41.13Z"/>
  <path class="cls-3" d="M220.2,49.67h11.36a2.59,2.59,0,0,1,2.59,2.59v0a2.59,2.59,0,0,1-2.59,2.59H220.2a0,0,0,0,1,0,0V49.67a0,0,0,0,1,0,0Z"/>
  <path class="cls-3" d="M220.2,58.21h11.36a2.59,2.59,0,0,1,2.59,2.59v0a2.59,2.59,0,0,1-2.59,2.59H220.2a0,0,0,0,1,0,0V58.21a0,0,0,0,1,0,0Z"/>
  <path class="cls-3" d="M220.2,66.75h11.36a2.59,2.59,0,0,1,2.59,2.59v0a2.59,2.59,0,0,1-2.59,2.59H220.2a0,0,0,0,1,0,0V66.75A0,0,0,0,1,220.2,66.75Z"/>
  <path class="cls-3" d="M220.2,75.3h11.36a2.59,2.59,0,0,1,2.59,2.59v0a2.59,2.59,0,0,1-2.59,2.59H220.2a0,0,0,0,1,0,0V75.3A0,0,0,0,1,220.2,75.3Z"/>
  <path class="cls-3" d="M220.2,83.84h11.36a2.59,2.59,0,0,1,2.59,2.59v0A2.59,2.59,0,0,1,231.55,89H220.2a0,0,0,0,1,0,0V83.84a0,0,0,0,1,0,0Z"/>
  <path class="cls-3" d="M220.2,92.38h11.36A2.59,2.59,0,0,1,234.15,95v0a2.59,2.59,0,0,1-2.59,2.59H220.2a0,0,0,0,1,0,0V92.38a0,0,0,0,1,0,0Z"/>
  <path class="cls-3" d="M220.2,100.92h11.36a2.59,2.59,0,0,1,2.59,2.59v0a2.59,2.59,0,0,1-2.59,2.59H220.2a0,0,0,0,1,0,0v-5.18A0,0,0,0,1,220.2,100.92Z"/>
  <path class="cls-3" d="M220.2,109.47h11.36a2.59,2.59,0,0,1,2.59,2.59v0a2.59,2.59,0,0,1-2.59,2.59H220.2a0,0,0,0,1,0,0v-5.18A0,0,0,0,1,220.2,109.47Z"/>
  <path class="cls-3" d="M159.13,213.87h11.36a2.59,2.59,0,0,1,2.59,2.59v0a2.59,2.59,0,0,1-2.59,2.59H159.13a0,0,0,0,1,0,0v-5.18a0,0,0,0,1,0,0Z" transform="translate(249.46 260.18) rotate(-180)"/>
  <path class="cls-3" d="M159.13,222.41h11.36a2.59,2.59,0,0,1,2.59,2.59v0a2.59,2.59,0,0,1-2.59,2.59H159.13a0,0,0,0,1,0,0v-5.18A0,0,0,0,1,159.13,222.41Z" transform="translate(249.46 277.27) rotate(-180)"/>
  <path class="cls-3" d="M159.13,231h11.36a2.59,2.59,0,0,1,2.59,2.59v0a2.59,2.59,0,0,1-2.59,2.59H159.13a0,0,0,0,1,0,0V231A0,0,0,0,1,159.13,231Z" transform="translate(249.46 294.35) rotate(180)"/>
  <path class="cls-3" d="M159.13,239.5h11.36a2.59,2.59,0,0,1,2.59,2.59v0a2.59,2.59,0,0,1-2.59,2.59H159.13a0,0,0,0,1,0,0V239.5A0,0,0,0,1,159.13,239.5Z" transform="translate(249.46 311.44) rotate(-180)"/>
  <path class="cls-3" d="M159.13,248h11.36a2.59,2.59,0,0,1,2.59,2.59v0a2.59,2.59,0,0,1-2.59,2.59H159.13a0,0,0,0,1,0,0V248A0,0,0,0,1,159.13,248Z" transform="translate(249.46 328.52) rotate(180)"/>
  <path class="cls-3" d="M159.13,256.58h11.36a2.59,2.59,0,0,1,2.59,2.59v0a2.59,2.59,0,0,1-2.59,2.59H159.13a0,0,0,0,1,0,0v-5.18A0,0,0,0,1,159.13,256.58Z" transform="translate(249.46 345.61) rotate(180)"/>
  <path class="cls-3" d="M159.13,265.12h11.36a2.59,2.59,0,0,1,2.59,2.59v0a2.59,2.59,0,0,1-2.59,2.59H159.13a0,0,0,0,1,0,0v-5.18a0,0,0,0,1,0,0Z" transform="translate(249.46 362.69) rotate(180)"/>
  <path class="cls-3" d="M159.13,273.67h11.36a2.59,2.59,0,0,1,2.59,2.59v0a2.59,2.59,0,0,1-2.59,2.59H159.13a0,0,0,0,1,0,0v-5.18a0,0,0,0,1,0,0Z" transform="translate(249.46 379.78) rotate(-180)"/>
  <path class="cls-3" d="M159.13,282.21h11.36a2.59,2.59,0,0,1,2.59,2.59v0a2.59,2.59,0,0,1-2.59,2.59H159.13a0,0,0,0,1,0,0v-5.18a0,0,0,0,1,0,0Z" transform="translate(249.46 396.86) rotate(180)"/>
  <path class="cls-3" d="M196.82,321h11.36a2.59,2.59,0,0,1,2.59,2.59v0a2.59,2.59,0,0,1-2.59,2.59H196.82a0,0,0,0,1,0,0V321A0,0,0,0,1,196.82,321Z" transform="translate(444.67 -52.92) rotate(90)"/>
  <path class="cls-3" d="M205.36,321h11.36a2.59,2.59,0,0,1,2.59,2.59v0a2.59,2.59,0,0,1-2.59,2.59H205.36a0,0,0,0,1,0,0V321A0,0,0,0,1,205.36,321Z" transform="translate(453.21 -61.46) rotate(90)"/>
  <path class="cls-3" d="M213.9,321h11.36a2.59,2.59,0,0,1,2.59,2.59v0a2.59,2.59,0,0,1-2.59,2.59H213.9a0,0,0,0,1,0,0V321a0,0,0,0,1,0,0Z" transform="translate(461.75 -70) rotate(90)"/>
  <path class="cls-3" d="M222.45,321H233.8a2.59,2.59,0,0,1,2.59,2.59v0a2.59,2.59,0,0,1-2.59,2.59H222.45a0,0,0,0,1,0,0V321A0,0,0,0,1,222.45,321Z" transform="translate(470.3 -78.54) rotate(90)"/>
  <path class="cls-3" d="M231,321h11.36a2.59,2.59,0,0,1,2.59,2.59v0a2.59,2.59,0,0,1-2.59,2.59H231a0,0,0,0,1,0,0V321A0,0,0,0,1,231,321Z" transform="translate(478.84 -87.09) rotate(90)"/>
  <path class="cls-3" d="M239.53,321h11.36a2.59,2.59,0,0,1,2.59,2.59v0a2.59,2.59,0,0,1-2.59,2.59H239.53a0,0,0,0,1,0,0V321A0,0,0,0,1,239.53,321Z" transform="translate(487.38 -95.63) rotate(90)"/>
  <path class="cls-3" d="M248.07,321h11.36a2.59,2.59,0,0,1,2.59,2.59v0a2.59,2.59,0,0,1-2.59,2.59H248.07a0,0,0,0,1,0,0V321a0,0,0,0,1,0,0Z" transform="translate(495.92 -104.17) rotate(90)"/>
  <path class="cls-3" d="M256.62,321H268a2.59,2.59,0,0,1,2.59,2.59v0a2.59,2.59,0,0,1-2.59,2.59H256.62a0,0,0,0,1,0,0V321A0,0,0,0,1,256.62,321Z" transform="translate(504.47 -112.71) rotate(90)"/>
  <path class="cls-3" d="M265.16,321h11.36a2.59,2.59,0,0,1,2.59,2.59v0a2.59,2.59,0,0,1-2.59,2.59H265.16a0,0,0,0,1,0,0V321A0,0,0,0,1,265.16,321Z" transform="translate(513.01 -121.26) rotate(90)"/>
  <path class="cls-3" d="M196.82,177.13h11.36a2.59,2.59,0,0,1,2.59,2.59v0a2.59,2.59,0,0,1-2.59,2.59H196.82a0,0,0,0,1,0,0v-5.18a0,0,0,0,1,0,0Z" transform="translate(-58.67 210.77) rotate(-90)"/>
  <path class="cls-3" d="M205.36,177.13h11.36a2.59,2.59,0,0,1,2.59,2.59v0a2.59,2.59,0,0,1-2.59,2.59H205.36a0,0,0,0,1,0,0v-5.18A0,0,0,0,1,205.36,177.13Z" transform="translate(-50.12 219.31) rotate(-90)"/>
  <path class="cls-3" d="M213.9,177.13h11.36a2.59,2.59,0,0,1,2.59,2.59v0a2.59,2.59,0,0,1-2.59,2.59H213.9a0,0,0,0,1,0,0v-5.18A0,0,0,0,1,213.9,177.13Z" transform="translate(-41.58 227.85) rotate(-90)"/>
  <path class="cls-3" d="M222.45,177.13H233.8a2.59,2.59,0,0,1,2.59,2.59v0a2.59,2.59,0,0,1-2.59,2.59H222.45a0,0,0,0,1,0,0v-5.18a0,0,0,0,1,0,0Z" transform="translate(-33.04 236.39) rotate(-90)"/>
  <path class="cls-3" d="M231,177.13h11.36a2.59,2.59,0,0,1,2.59,2.59v0a2.59,2.59,0,0,1-2.59,2.59H231a0,0,0,0,1,0,0v-5.18A0,0,0,0,1,231,177.13Z" transform="translate(-24.5 244.94) rotate(-90)"/>
  <path class="cls-3" d="M239.53,177.13h11.36a2.59,2.59,0,0,1,2.59,2.59v0a2.59,2.59,0,0,1-2.59,2.59H239.53a0,0,0,0,1,0,0v-5.18a0,0,0,0,1,0,0Z" transform="translate(-15.95 253.48) rotate(-90)"/>
  <path class="cls-3" d="M248.07,177.13h11.36a2.59,2.59,0,0,1,2.59,2.59v0a2.59,2.59,0,0,1-2.59,2.59H248.07a0,0,0,0,1,0,0v-5.18a0,0,0,0,1,0,0Z" transform="translate(-7.41 262.02) rotate(-90)"/>
  <path class="cls-3" d="M256.62,177.13H268a2.59,2.59,0,0,1,2.59,2.59v0a2.59,2.59,0,0,1-2.59,2.59H256.62a0,0,0,0,1,0,0v-5.18a0,0,0,0,1,0,0Z" transform="translate(1.13 270.56) rotate(-90)"/>
  <path class="cls-3" d="M265.16,177.13h11.36a2.59,2.59,0,0,1,2.59,2.59v0a2.59,2.59,0,0,1-2.59,2.59H265.16a0,0,0,0,1,0,0v-5.18a0,0,0,0,1,0,0Z" transform="translate(9.67 279.11) rotate(-90)"/>
  <rect class="cls-4" x="84.59" y="8.3" width="141.25" height="141.25" rx="14.81" ry="14.81"/>
  <path class="cls-5" d="M294.22,323.71H181.7a15.8,15.8,0,0,1-15.78-15.78V195.41a15.8,15.8,0,0,1,15.78-15.78H294.22A15.8,15.8,0,0,1,310,195.41V307.93A15.8,15.8,0,0,1,294.22,323.71ZM181.7,182.45a13,13,0,0,0-13,13V307.93a13,13,0,0,0,13,13H294.22a13,13,0,0,0,13-13V195.41a13,13,0,0,0-13-13H181.7Z" transform="translate(-82.74 -172.74)"/>
  <rect class="cls-5" x="108.05" y="31.76" width="94.34" height="94.34" rx="5.67" ry="5.67"/>
  <path class="cls-6" d="M281.13,299.9H194.8a5.07,5.07,0,0,1-5.06-5.06V208.5a5.07,5.07,0,0,1,5.06-5.06h86.33a5.07,5.07,0,0,1,5.06,5.06v86.33A5.07,5.07,0,0,1,281.13,299.9ZM194.8,205.56a3,3,0,0,0-2.94,2.94v86.33a3,3,0,0,0,2.94,2.94h86.33a3,3,0,0,0,2.94-2.94V208.5a3,3,0,0,0-2.94-2.94H194.8Z" transform="translate(-82.74 -172.74)"/>
  <rect class="cls-6" x="115.12" y="13.23" width="3.35" height="13.95"/>
  <rect class="cls-6" x="123.66" y="13.23" width="3.35" height="13.95"/>
  <rect class="cls-6" x="132.19" y="13.23" width="3.35" height="13.95"/>
  <rect class="cls-6" x="140.73" y="13.23" width="3.35" height="13.95"/>
  <rect class="cls-6" x="149.27" y="13.23" width="3.35" height="13.95"/>
  <rect class="cls-6" x="157.81" y="13.23" width="3.35" height="13.95"/>
  <rect class="cls-6" x="166.35" y="13.23" width="3.35" height="13.95"/>
  <rect class="cls-6" x="174.89" y="13.23" width="3.35" height="13.95"/>
  <rect class="cls-6" x="183.43" y="13.23" width="3.35" height="13.95"/>
  <rect class="cls-6" x="191.97" y="13.23" width="3.35" height="13.95"/>
  <rect class="cls-6" x="115.12" y="130.67" width="3.35" height="13.95"/>
  <rect class="cls-6" x="123.66" y="130.67" width="3.35" height="13.95"/>
  <rect class="cls-6" x="132.19" y="130.67" width="3.35" height="13.95"/>
  <rect class="cls-6" x="140.73" y="130.67" width="3.35" height="13.95"/>
  <rect class="cls-6" x="149.27" y="130.67" width="3.35" height="13.95"/>
  <rect class="cls-6" x="157.81" y="130.67" width="3.35" height="13.95"/>
  <rect class="cls-6" x="166.35" y="130.67" width="3.35" height="13.95"/>
  <rect class="cls-6" x="174.89" y="130.67" width="3.35" height="13.95"/>
  <rect class="cls-6" x="183.43" y="130.67" width="3.35" height="13.95"/>
  <rect class="cls-6" x="191.97" y="130.67" width="3.35" height="13.95"/>
  <rect class="cls-6" x="295.01" y="282.06" width="3.35" height="13.95" transform="translate(-75.09 412.98) rotate(-90)"/>
  <rect class="cls-6" x="295.01" y="273.52" width="3.35" height="13.95" transform="translate(-66.56 404.44) rotate(-90)"/>
  <rect class="cls-6" x="295.01" y="264.98" width="3.35" height="13.95" transform="translate(-58.02 395.9) rotate(-90)"/>
  <rect class="cls-6" x="295.01" y="256.44" width="3.35" height="13.95" transform="translate(-49.48 387.36) rotate(-90)"/>
  <rect class="cls-6" x="295.01" y="247.9" width="3.35" height="13.95" transform="translate(-40.94 378.82) rotate(-90)"/>
  <rect class="cls-6" x="295.01" y="239.36" width="3.35" height="13.95" transform="translate(-32.4 370.28) rotate(-90)"/>
  <rect class="cls-6" x="295.01" y="230.82" width="3.35" height="13.95" transform="translate(-23.86 361.74) rotate(-90)"/>
  <rect class="cls-6" x="295.01" y="222.29" width="3.35" height="13.95" transform="translate(-15.32 353.2) rotate(-90)"/>
  <rect class="cls-6" x="295.01" y="213.75" width="3.35" height="13.95" transform="translate(-6.78 344.66) rotate(-90)"/>
  <rect class="cls-6" x="295.01" y="205.21" width="3.35" height="13.95" transform="translate(1.76 336.12) rotate(-90)"/>
  <rect class="cls-6" x="177.56" y="284.18" width="3.35" height="13.95" transform="translate(-194.66 297.65) rotate(-90)"/>
  <rect class="cls-6" x="177.56" y="275.64" width="3.35" height="13.95" transform="translate(-186.12 289.11) rotate(-90)"/>
  <rect class="cls-6" x="177.56" y="267.1" width="3.35" height="13.95" transform="translate(-177.58 280.57) rotate(-90)"/>
  <rect class="cls-6" x="177.56" y="258.56" width="3.35" height="13.95" transform="translate(-169.04 272.03) rotate(-90)"/>
  <rect class="cls-6" x="177.56" y="250.02" width="3.35" height="13.95" transform="translate(-160.5 263.5) rotate(-90)"/>
  <rect class="cls-6" x="177.56" y="241.48" width="3.35" height="13.95" transform="translate(-151.96 254.96) rotate(-90)"/>
  <rect class="cls-6" x="177.56" y="232.94" width="3.35" height="13.95" transform="translate(-143.42 246.42) rotate(-90)"/>
  <rect class="cls-6" x="177.56" y="224.4" width="3.35" height="13.95" transform="translate(-134.88 237.88) rotate(-90)"/>
  <rect class="cls-6" x="177.56" y="215.86" width="3.35" height="13.95" transform="translate(-126.34 229.34) rotate(-90)"/>
  <rect class="cls-6" x="177.56" y="207.32" width="3.35" height="13.95" transform="translate(-117.8 220.8) rotate(-90)"/>
  <path class="cls-7" d="M207.41,248.71L223,241.86a1.69,1.69,0,0,1,2.37,1.54v3.27a1.69,1.69,0,0,1-1.1,1.58L214.08,252l10.14,3.76a1.69,1.69,0,0,1,1.1,1.58v3.31a1.69,1.69,0,0,1-2.37,1.54l-15.54-6.84a1.69,1.69,0,0,1-1-1.54v-3.57A1.69,1.69,0,0,1,207.41,248.71Z" transform="translate(-82.74 -172.74)"/>
  <path class="cls-7" d="M242,233.06h3.67a1.69,1.69,0,0,1,1.59,2.24l-11.84,33.85a1.69,1.69,0,0,1-1.59,1.13h-3.67a1.69,1.69,0,0,1-1.59-2.24l11.84-33.85A1.69,1.69,0,0,1,242,233.06Z" transform="translate(-82.74 -172.74)"/>
  <path class="cls-7" d="M268.52,255.37L253,262.21a1.69,1.69,0,0,1-2.37-1.54v-3.31a1.69,1.69,0,0,1,1.1-1.58L261.84,252l-10.14-3.76a1.69,1.69,0,0,1-1.1-1.58v-3.27a1.69,1.69,0,0,1,2.37-1.54l15.54,6.84a1.69,1.69,0,0,1,1,1.54v3.57A1.69,1.69,0,0,1,268.52,255.37Z" transform="translate(-82.74 -172.74)"/>
</svg>
