<svg id="Capa_1" data-name="Capa 1" xmlns="http://www.w3.org/2000/svg" viewBox="0 0 417.5 275.9">
  <defs>
    <style>
      .cls-1{fill:#ba5a8a;}.cls-2{fill:#dd7aac;}.cls-3{fill:#d16596;}.cls-4{fill:none;stroke:#dd7aac;stroke-miterlimit:10;stroke-width:6px;}.cls-5{fill:#e5d17f;}.cls-6{fill:#c9b76b;}.cls-7{fill:#6b6b6b;}.cls-8{fill:#5b5b5b;}.cls-9{fill:#ddd826;}.cls-10{fill:#cccc1d;}.cls-11{fill:#bcb81d;}.cls-12{fill:#ccc;}.cls-13{fill:#c1c1c1;}.cls-14{fill:#b5b5b5;}
    </style>
  </defs>
  <title>creative</title>
  <path class="cls-1" d="M218,344.87a50.16,50.16,0,1,0-76,43h51.65A50.13,50.13,0,0,0,218,344.87Z" transform="translate(-23 -112.1)"/>
  <path class="cls-2" d="M226.55,380.89a68.43,68.43,0,0,0-136.86,0,69.23,69.23,0,0,0,.35,7H226.19A69.23,69.23,0,0,0,226.55,380.89Z" transform="translate(-23 -112.1)"/>
  <circle class="cls-1" cx="233.77" cy="194.94" r="49.41"/>
  <polygon class="cls-3" points="255.03 258.46 258.39 255.08 294.16 219.29 187.7 151.24 171 167.84 171 167.84 169.41 169.37 167.79 170.9 167.8 170.9 151.2 187.72 207.48 275.9 237.66 275.9 255.03 258.46"/>
  <path class="cls-2" d="M398.09,349.21a85.88,85.88,0,1,0-162.58,38.67h153.4A85.51,85.51,0,0,0,398.09,349.21Z" transform="translate(-23 -112.1)"/>
  <path class="cls-3" d="M117.63,346a49,49,0,0,0-48.49,41.86h97A49,49,0,0,0,117.63,346Z" transform="translate(-23 -112.1)"/>
  <path class="cls-3" d="M440.5,370a63,63,0,1,0-123.39,18H437.89A63,63,0,0,0,440.5,370Z" transform="translate(-23 -112.1)"/>
  <line class="cls-4" x1="161.65" y1="173.92" x2="206.33" y2="227.19"/>
  <line class="cls-4" x1="173.81" y1="161.76" x2="231.77" y2="209.56"/>
  <polygon class="cls-5" points="0 0 61.07 24.7 24.59 61.18 0 0"/>
  <polygon class="cls-6" points="0 0 36.47 48.74 60.79 24.42 0 0"/>
  <polygon class="cls-7" points="0 0 3.59 8.94 8.92 3.61 0 0"/>
  <polygon class="cls-8" points="5.36 7.17 0 0 8.92 3.61 5.36 7.17"/>
  <rect class="cls-9" x="104.19" y="144.3" width="17.2" height="164.05" transform="translate(-150 33.94) rotate(-45)"/>
  <rect class="cls-10" x="116.35" y="132.14" width="17.2" height="164.05" transform="translate(-137.84 38.97) rotate(-45)"/>
  <rect class="cls-11" x="128.51" y="119.98" width="17.2" height="164.05" transform="translate(-125.68 44.01) rotate(-45)"/>
  <circle class="cls-10" cx="66.95" cy="156.16" r="8.6" transform="translate(-113.81 -19.03) rotate(-45)"/>
  <circle class="cls-11" cx="79.11" cy="144" r="8.6" transform="translate(-101.65 -13.99) rotate(-45)"/>
  <circle class="cls-9" cx="54.79" cy="168.32" r="8.6" transform="translate(-125.97 -24.06) rotate(-45)"/>
  <rect class="cls-12" x="148.7" y="237.91" width="51.59" height="51.59" transform="translate(-158.36 88.52) rotate(-45)"/>
  <rect class="cls-13" x="163.38" y="231.83" width="34.39" height="51.59" transform="translate(-152.28 91.04) rotate(-45)"/>
  <rect class="cls-14" x="178.05" y="225.75" width="17.2" height="51.59" transform="translate(-146.2 93.56) rotate(-45)"/>
  <path class="cls-1" d="M218,326.43a61.45,61.45,0,0,0-61.45,61.45H279.4A61.45,61.45,0,0,0,218,326.43Z" transform="translate(-23 -112.1)"/>
</svg>
