<svg id="Capa_2" data-name="Capa 2" xmlns="http://www.w3.org/2000/svg" viewBox="0 0 389.23 122.02"><defs><style>.cls-1{fill:#505050;}</style></defs><title>logo</title><path class="cls-1" d="M325.54,327.9v28h17.23v24.26H325.19v36.71H299.87v-89c0-42.2,67.17-45.72,67.17,0H343.13C343.12,315.6,325.54,315.25,325.54,327.9Z" transform="translate(-299.87 -294.85)"/><path class="cls-1" d="M392.29,343.38h24.26v24.09s-31.3.09-24.62,0.09c33.52,0,33.06,49.32,0,49.32H367V392.61h25C360.52,392.61,359.35,343.38,392.29,343.38Z" transform="translate(-299.87 -294.85)"/><rect class="cls-1" x="141.59" width="25.32" height="121.67"/><polygon class="cls-1" points="191.46 48.18 240.34 48.18 240.34 72.44 222.67 97.06 240.34 97.06 240.34 121.67 191.46 121.67 191.46 97.41 209.13 72.79 191.46 72.79 191.46 48.18"/><path class="cls-1" d="M591,350.41V343h-26v73.5h26V392.26s0-25,23.56-25h0s0-24.26,0-24.26C597.29,343,591,350.41,591,350.41Z" transform="translate(-299.87 -294.85)"/><path class="cls-1" d="M665.54,350.41V343h-26v73.5h26V392.26s0-25,23.56-25h0s0-24.26,0-24.26C671.87,343,665.54,350.41,665.54,350.41Z" transform="translate(-299.87 -294.85)"/></svg>