<svg id="Capa_1" data-name="Capa 1" xmlns="http://www.w3.org/2000/svg" viewBox="0 0 382.57 186.67">
  <defs>
    <style>.cls-1{fill:#f4f4f4;}.cls-2{fill:#ced7de;}.cls-3{fill:#425a74;}.cls-4{fill:#fff;}.cls-5{fill:#505050;}.cls-6{fill:#dee614;}.cls-7{fill:#d5d6d8;}</style>
  </defs>
  <title>responsive</title>
  <path class="cls-1" d="M332.13,336.23l-4.25-21-23.15.08h-23l-4.17,20.95s-0.83,3.78-8.83,3.78H341C333,340,332.13,336.23,332.13,336.23Z" transform="translate(-58.72 -156.67)"/>
  <path class="cls-2" d="M332.88,336.23l-4.17-21-27,.08L281.2,317.7,301.71,340h40C333.71,340,332.88,336.23,332.88,336.23Z" transform="translate(-58.72 -156.67)"/>
  <path class="cls-1" d="M341,339H264.71s0.67,4,4.58,4H341c3.92,0,4.58-4,4.58-4H341Z" transform="translate(-58.72 -156.67)"/>
  <path class="cls-1" d="M396.61,156.67h-190c-4.09,0-7.4,3.8-7.4,8.48V309.28c0,4.68,3.31,8.48,7.4,8.48H403.2c4.09,0,7.4-3.8,7.4-8.48V165.15c0-4.68-3.31-8.48-7.4-8.48h-6.59Z" transform="translate(-58.72 -156.67)"/>
  <path class="cls-3" d="M396.61,156.67H206.67a7.4,7.4,0,0,0-7.4,7.4V297.33H410.6V164.06a7.4,7.4,0,0,0-7.4-7.4h-6.59Z" transform="translate(-58.72 -156.67)"/>
  <polygon class="cls-4" points="327.93 11.33 165.1 11.33 152.28 11.33 152.28 128.33 165.1 128.33 327.93 128.33 341.28 128.33 341.28 11.33 327.93 11.33"/>
  <rect class="cls-5" x="158.86" y="17.33" width="52.37" height="15.82"/>
  <rect class="cls-6" x="158.86" y="70.14" width="52.37" height="31.12"/>
  <rect class="cls-6" x="220.86" y="70.14" width="52.37" height="31.12"/>
  <rect class="cls-6" x="282.85" y="70.14" width="52.37" height="31.12"/>
  <rect class="cls-7" x="217.57" y="17.33" width="117.66" height="15.82"/>
  <rect class="cls-7" x="158.86" y="39.55" width="176.36" height="24.19"/>
  <rect class="cls-7" x="158.86" y="107.66" width="176.36" height="4.8"/>
  <rect class="cls-7" x="158.86" y="118.87" width="176.36" height="4.8"/>
  <path class="cls-3" d="M435.87,223H363.56a4.13,4.13,0,0,0-4.13,4.13V339.2a4.13,4.13,0,0,0,4.13,4.13h73.6a4.13,4.13,0,0,0,4.13-4.13V227.11a4.13,4.13,0,0,0-4.13-4.13h-1.29Z" transform="translate(-58.72 -156.67)"/>
  <polygon class="cls-4" points="373.31 78.12 309.86 78.12 305.01 78.12 305.01 172.73 309.86 172.73 373.31 172.73 378.27 172.73 378.27 78.12 373.31 78.12"/>
  <rect class="cls-5" x="309.57" y="82.81" width="29.37" height="12.63"/>
  <rect class="cls-6" x="309.57" y="125" width="29.37" height="24.86"/>
  <rect class="cls-6" x="344.34" y="125" width="29.37" height="24.86"/>
  <rect class="cls-7" x="344.53" y="82.81" width="29.19" height="12.63"/>
  <rect class="cls-7" x="309.57" y="100.56" width="64.15" height="19.32"/>
  <rect class="cls-7" x="309.57" y="154.97" width="64.15" height="3.84"/>
  <rect class="cls-7" x="309.57" y="163.92" width="64.15" height="3.84"/>
  <path class="cls-3" d="M369.69,286.07H343a2,2,0,0,0-2,2V341.3a2,2,0,0,0,2,2h26.72a2,2,0,0,0,2-2V288.11a2,2,0,0,0-2-2h0Z" transform="translate(-58.72 -156.67)"/>
  <polygon class="cls-4" points="309.53 135.02 285.65 135.02 283.83 135.02 283.83 180.03 285.65 180.03 309.53 180.03 311.4 180.03 311.4 135.02 309.53 135.02"/>
  <rect class="cls-5" x="285.55" y="137.25" width="24.14" height="6.01"/>
  <rect class="cls-6" x="285.55" y="157.32" width="24.14" height="11.83"/>
  <rect class="cls-7" x="285.55" y="145.7" width="24.14" height="9.19"/>
  <rect class="cls-7" x="285.55" y="171.59" width="24.14" height="1.82"/>
  <rect class="cls-7" x="285.55" y="175.84" width="24.14" height="1.82"/>
  <path class="cls-3" d="M269,199.33H89.21a7,7,0,0,0-7,7v119a7,7,0,0,0,7,7h186a7,7,0,0,0,7-7v-119a7,7,0,0,0-7-7H269Z" transform="translate(-58.72 -156.67)"/>
  <polygon class="cls-4" points="200.87 53.33 45.83 53.33 34.28 53.33 34.28 164.33 45.83 164.33 200.87 164.33 213.28 164.33 213.28 53.33 200.87 53.33"/>
  <rect class="cls-5" x="39.97" y="59.17" width="49.6" height="14.82"/>
  <rect class="cls-6" x="39.97" y="108.67" width="49.6" height="29.17"/>
  <rect class="cls-6" x="98.69" y="108.67" width="49.6" height="29.17"/>
  <rect class="cls-6" x="157.41" y="108.67" width="49.6" height="29.17"/>
  <rect class="cls-7" x="95.57" y="59.17" width="111.44" height="14.82"/>
  <rect class="cls-7" x="39.97" y="80" width="167.04" height="22.67"/>
  <rect class="cls-7" x="39.97" y="143.83" width="167.04" height="4.5"/>
  <rect class="cls-7" x="39.97" y="154.33" width="167.04" height="4.5"/>
  <rect class="cls-1" y="175.56" width="246.87" height="4.35"/>
  <path class="cls-2" d="M293.5,336H58.84s1.59,7,12.31,7H293.5c10.72,0,12.31-7,12.31-7H293.5Z" transform="translate(-58.72 -156.67)"/>
</svg>
